# AST/ASF file generated using VICON BodyLanguage
# -----------------------------------------------
:version 1.10
:name VICON
:units
  mass 1.0
  length 0.45
  angle deg
:documentation
   .ast/.asf automatically generated from VICON data using
   VICON BodyBuilder and BodyLanguage model FoxedUp or BRILLIANT.MOD
:root
   order TX TY TZ RX RY RZ
   axis XYZ
   position 0 0 0  
   orientation 0 0 0 
:bonedata
  begin
     id 1 
     name lhipjoint
     direction 0.722297 -0.617336 0.311742 
     length 2.6635 
     axis 0 0 0  XYZ
  end
  begin
     id 2 
     name lfemur
     direction 0.34202 -0.939693 0  
     length 7.39349  
     axis 0 0 20  XYZ
    dof rx ry rz
    limits (-160.0 20.0)
           (-70.0 70.0)
           (-60.0 70.0)
  end
  begin
     id 3 
     name ltibia
     direction 0.34202 -0.939693 0   
     length 7.36294   
     axis 0 0 20   XYZ
    dof rx
    limits (-10.0 170.0)
  end
  begin
     id 4 
     name lfoot
     direction 0.104879 -0.288152 0.951824   
     length 2.16981   
     axis -90 7.62852e-016 20   XYZ
    dof rx rz
    limits (-45.0 90.0)
           (-70.0 20.0)
  end
  begin
     id 5 
     name ltoes
     direction 1.53586e-011 -4.21895e-011 1   
     length 1.08218   
     axis -90 7.62852e-016 20   XYZ
    dof rx
    limits (-90.0 20.0)
  end
  begin
     id 6 
     name rhipjoint
     direction -0.75102 -0.589393 0.297631   
     length 2.78977  
     axis 0 0 0  XYZ 
  end
  begin
     id 7 
     name rfemur
     direction -0.34202 -0.939693 0   
     length 7.46076   
     axis 0 0 -20   XYZ
    dof rx ry rz
    limits (-160.0 20.0)
           (-70.0 70.0)
           (-70.0 60.0)
  end
  begin
     id 8 
     name rtibia
     direction -0.34202 -0.939693 0   
     length 7.31726   
     axis 0 0 -20   XYZ
    dof rx
    limits (-10.0 170.0)
 end
 begin
     id 9 
     name rfoot
     direction -0.107991 -0.296704 0.948844   
     length 2.09388  
     axis -90 -7.62852e-016 -20   XYZ
    dof rx rz
    limits (-45.0 90.0)
           (-20.0 70.0)
  end
  begin
     id 10 
     name rtoes
     direction -1.53559e-011 -4.21911e-011 1   
     length 1.04433   
     axis -90 -7.62852e-016 -20   XYZ
    dof rx
    limits (-90.0 20.0)
  end
  begin
     id 11 
     name lowerback
     direction 0.0165164 0.98272 0.184358   
     length 1.71896   
     axis 0 0 0   XYZ
    dof rx ry rz
    limits (-20.0 45.0)
           (-30.0 30.0)
           (-30.0 30.0)
  end
  begin
     id 12 
     name upperback
     direction -0.00887249 0.992297 0.123566   
     length 1.71504   
     axis 0 0 0   XYZ
    dof rx ry rz
    limits (-20.0 45.0)
           (-30.0 30.0)
           (-30.0 30.0)
  end
  begin
     id 13 
     name thorax
     direction -0.0157026 0.998908 0.0440032   
     length 1.77022   
     axis 0 0 0   XYZ
    dof rx ry rz
    limits (-20.0 45.0)
           (-30.0 30.0)
           (-30.0 30.0)
  end
  begin
     id 14 
     name lowerneck
     direction -0.0238856 0.998137 0.0561411   
     length 1.89341   
     axis 0 0 0   XYZ
    dof rx ry rz
    limits (-20.0 45.0)
           (-30.0 30.0)
           (-30.0 30.0)
  end
  begin
     id 15 
     name upperneck
     direction 0.0276574 0.952253 -0.304056   
     length 1.86999   
     axis 0 0 0   XYZ
    dof rx ry rz
    limits (-20.0 45.0)
           (-30.0 30.0)
           (-30.0 30.0)
  end
  begin
     id 16
     name head
     direction 0.00800083 0.994258 -0.106712  
     length 1.91492  
     axis 0 0 0   XYZ
    dof rx ry rz
    limits (-20.0 45.0)
           (-30.0 30.0)
           (-30.0 30.0)
  end
  begin
     id 17 
     name lclavicle
     direction 0.97203 0.225407 0.06595  
     length 3.34889  
     axis 0 0 0   XYZ
    dof ry rz
    limits (-20.0 10.0)
           (0.0 20.0)
  end
  begin
     id 18 
     name lhumerus
     direction 1 -4.48973e-011 2.20267e-027   
     length 4.85645   
     axis 180 -30 -90   XYZ
    dof rx ry rz
    limits (-60.0 90.0)
           (-90.0 90.0)
           (-90.0 90.0)
  end
  begin
     id 19
     name lradius
     direction 1 -4.4897e-011 4.60472e-027   
     length 2.79874   
     axis 180 -30 -90   XYZ
    dof rx
    limits (-10.0 170.0)
  end
  begin
     id 20
     name lwrist
     direction 1 -4.48952e-011 1.14928e-026   
     length 1.39937   
     axis -6.29373e-015 90 90   XYZ
    dof ry
    limits (-180.0 0.0)
 end
  begin
     id 21 
     name lhand
     direction 1 -4.48967e-011 2.29886e-026   
     length 0.573398   
     axis -1.46689e-014 90 90   XYZ
    dof rx rz
    limits (-90.0 90.0)
           (-45.0 45.0)
  end
  begin
     id 22 
     name lfingers
     direction 1 -4.48955e-011 4.59726e-026   
     length 0.462289   
     axis -2.93383e-014 90 90   XYZ
    dof rx
    limits (0.0 90.0)
  end
  begin
     id 23
     name lthumb
     direction 0.707107 -6.34866e-011 0.707107   
     length 0.663757   
     axis -90 45 5.69224e-014   XYZ
    dof rx rz
    limits (-45.0 45.0)
           (-45.0 45.0)
  end
  begin
     id 24 
     name rclavicle
     direction -0.981571 0.157346 0.108443   
     length 3.35257  
     axis 0 0 0   XYZ 
    dof ry rz
    limits (-10.0 20.0)
           (-20.0 0.0)
  end
  begin
     id 25 
     name rhumerus
     direction -1 -4.48967e-011 8.58308e-029  
     length 4.67018   
     axis 180 30 90   XYZ
    dof rx ry rz
    limits (-90.0 60.0)
           (-90.0 90.0)
           (-90.0 90.0)
  end
  begin
     id 26 
     name rradius
     direction -1 -4.48958e-011 4.52548e-027   
     length 2.65534   
     axis 180 30 90   XYZ
    dof rx
    limits (-10.0 170.0)
  end
  begin
     id 27 
     name rwrist
     direction -1 -4.48977e-011 1.14952e-026   
     length 1.32767   
     axis -6.29373e-015 -90 -90   XYZ
    dof ry
    limits (-180.0 0.0)
  end
  begin
     id 28
     name rhand
     direction -1 -4.48924e-011 2.29804e-026   
     length 0.594069   
     axis -1.46689e-014 -90 -90   XYZ
    dof rx rz
    limits (-90.0 90.0)
           (-45.0 45.0)
  end
  begin
     id 29
     name rfingers
     direction -1 -4.48998e-011 4.59888e-026   
     length 0.478954   
     axis -2.93383e-014 -90 -90   XYZ
    dof rx
    limits (0.0 90.0)
  end
  begin
     id 30
     name rthumb
     direction -0.707107 -6.34933e-011 0.707107   
     length 0.687685   
     axis -90 -45 -5.69224e-014   XYZ
    dof rx rz
    limits (-45.0 45.0)
           (-45.0 45.0)
  end
:hierarchy
  begin
    root lhipjoint rhipjoint lowerback
    lhipjoint lfemur
    lfemur ltibia
    ltibia lfoot
    lfoot ltoes
    rhipjoint rfemur
    rfemur rtibia
    rtibia rfoot
    rfoot rtoes
    lowerback upperback
    upperback thorax
    thorax lowerneck lclavicle rclavicle
    lowerneck upperneck
    upperneck head
    lclavicle lhumerus
    lhumerus lradius
    lradius lwrist
    lwrist lhand lthumb
    lhand lfingers
    rclavicle rhumerus
    rhumerus rradius
    rradius rwrist
    rwrist rhand rthumb
    rhand rfingers
  end

#!OML:ASF E:\pregnant2\Project 1\Capture day 1\Session 1\pregnant2.ASF
:FULLY-SPECIFIED
:DEGREES
239
root -4.35477 17.3874 19.6196 31.6044 2.03703 0.753637
lowerback -21.3115 0.320623 -1.97043
upperback -14.7256 0.778739 -1.03175
thorax -4.21249 0.517161 0.133812
lowerneck -2.59083 -3.06975 -1.86678
upperneck 54.7684 -11.6661 12.6143
head 29.9312 -3.98487 6.60033
rclavicle 4.72114e-015 -4.57205e-015
rhumerus -42.0543 1.60049 -89.8061
rradius 27.7873
rwrist 18.6554
rhand -10.5392 -15.0905
rfingers 7.12502
rthumb 15.4644 -44.492
lclavicle 4.72114e-015 -4.57205e-015
lhumerus -44.3629 -8.33119 92.1331
lradius 25.2681
lwrist -9.85648
lhand -7.99199 25.5019
lfingers 7.12502
lthumb 17.9165 54.6966
rfemur -46.1088 14.9987 7.16952
rtibia 29.1513
rfoot -15.652 -26.4966
rtoes 1.3591
lfemur -42.3375 -8.05187 -13.7969
ltibia 24.6044
lfoot -11.4698 20.2903
ltoes -2.73907
240
root -4.35274 17.3876 19.6222 31.6136 2.03608 0.737577
lowerback -21.318 0.316438 -1.9623
upperback -14.7404 0.77206 -0.9976
thorax -4.22648 0.515057 0.164562
lowerneck -2.74593 -3.1121 -1.83347
upperneck 54.3212 -12.006 13.1847
head 29.7185 -4.06551 6.86574
rclavicle -1.59028e-015 7.95139e-016
rhumerus -42.1288 1.58789 -89.8386
rradius 27.804
rwrist 18.6685
rhand -10.5266 -15.0854
rfingers 7.12502
rthumb 15.4765 -44.4859
lclavicle -1.59028e-015 7.95139e-016
lhumerus -44.3758 -8.457 92.1978
lradius 25.2899
lwrist -9.8168
lhand -8.01701 25.491
lfingers 7.12502
lthumb 17.8925 54.6879
rfemur -46.101 15.0387 7.15625
rtibia 29.1241
rfoot -15.6599 -26.5345
rtoes 1.36226
lfemur -42.3457 -8.04926 -13.7864
ltibia 24.622
lfoot -11.4923 20.2928
ltoes -2.729
241
root -4.35082 17.3878 19.6247 31.6279 2.03816 0.722343
lowerback -21.3222 0.310708 -1.95737
upperback -14.7615 0.763783 -0.963054
thorax -4.24886 0.512533 0.197157
lowerneck -2.90549 -3.15312 -1.80477
upperneck 53.9128 -12.3431 13.7548
head 29.4508 -4.13488 7.11333
rclavicle -1.11071e-014 -5.56597e-015
rhumerus -42.2078 1.58397 -89.8707
rradius 27.8137
rwrist 18.6877
rhand -10.5135 -15.0861
rfingers 7.12502
rthumb 15.4891 -44.4856
lclavicle -1.11071e-014 -5.56597e-015
lhumerus -44.3905 -8.57162 92.2615
lradius 25.3144
lwrist -9.77699
lhand -8.03905 25.4811
lfingers 7.12502
lthumb 17.8713 54.6799
rfemur -46.0995 15.0713 7.14518
rtibia 29.1002
rfoot -15.6667 -26.5685
rtoes 1.3712
lfemur -42.3623 -8.0477 -13.7739
ltibia 24.6418
lfoot -11.5142 20.2938
ltoes -2.71662
242
root -4.34899 17.3877 19.627 31.6441 2.0428 0.707384
lowerback -21.3208 0.303644 -1.95542
upperback -14.7879 0.754079 -0.927462
thorax -4.28002 0.509688 0.232179
lowerneck -3.06713 -3.19067 -1.77708
upperneck 53.4973 -12.6611 14.3132
head 29.1754 -4.19655 7.35053
rclavicle 2.5842e-015 6.16232e-015
rhumerus -42.292 1.58607 -89.8997
rradius 27.8193
rwrist 18.7168
rhand -10.4925 -15.0816
rfingers 7.12502
rthumb 15.5094 -44.4796
lclavicle 2.5842e-015 6.16232e-015
lhumerus -44.4052 -8.67446 92.3252
lradius 25.3415
lwrist -9.73604
lhand -8.05265 25.4792
lfingers 7.12502
lthumb 17.8582 54.6792
rfemur -46.0984 15.0732 7.15306
rtibia 29.0802
rfoot -15.6639 -26.5727
rtoes 1.36826
lfemur -42.383 -8.04594 -13.7607
ltibia 24.6642
lfoot -11.5345 20.2932
ltoes -2.71145
243
root -4.34707 17.3876 19.6294 31.6596 2.05011 0.689871
lowerback -21.3189 0.297242 -1.94928
upperback -14.8139 0.744588 -0.891789
thorax -4.31097 0.506646 0.26498
lowerneck -3.23816 -3.22459 -1.74899
upperneck 53.075 -12.96 14.8583
head 28.8971 -4.25036 7.57638
rclavicle 4.00054e-015 -1.31198e-014
rhumerus -42.3696 1.59658 -89.9301
rradius 27.8136
rwrist 18.7432
rhand -10.486 -15.0553
rfingers 7.12502
rthumb 15.5156 -44.4528
lclavicle 4.00054e-015 -1.31198e-014
lhumerus -44.4122 -8.76585 92.3865
lradius 25.372
lwrist -9.6918
lhand -8.06351 25.4818
lfingers 7.12502
lthumb 17.8477 54.6828
rfemur -46.0964 15.0654 7.17033
rtibia 29.0627
rfoot -15.6594 -26.5679
rtoes 1.36682
lfemur -42.4053 -8.04583 -13.7437
ltibia 24.6897
lfoot -11.5564 20.2931
ltoes -2.70208
244
root -4.34519 17.3875 19.6316 31.6766 2.06139 0.672669
lowerback -21.3134 0.28988 -1.943
upperback -14.8408 0.733771 -0.856377
thorax -4.34468 0.502954 0.297163
lowerneck -3.41958 -3.25533 -1.72085
upperneck 52.6462 -13.2407 15.3897
head 28.6161 -4.29661 7.7905
rclavicle -1.6847e-014 4.57205e-015
rhumerus -42.4462 1.61888 -89.964
rradius 27.8078
rwrist 18.7621
rhand -10.491 -15.0263
rfingers 7.12502
rthumb 15.5108 -44.4242
lclavicle -1.6847e-014 4.57205e-015
lhumerus -44.4125 -8.84353 92.4442
lradius 25.4074
lwrist -9.64802
lhand -8.06996 25.4906
lfingers 7.12502
lthumb 17.8415 54.6922
rfemur -46.0964 15.0512 7.19081
rtibia 29.0473
rfoot -15.6568 -26.5596
rtoes 1.36969
lfemur -42.432 -8.0446 -13.7267
ltibia 24.7175
lfoot -11.578 20.288
ltoes -2.69396
245
root -4.34328 17.3872 19.6338 31.694 2.07517 0.655149
lowerback -21.3097 0.282208 -1.93583
upperback -14.8656 0.722523 -0.820823
thorax -4.375 0.498957 0.32899
lowerneck -3.6098 -3.28341 -1.69904
upperneck 52.2058 -13.5047 15.9143
head 28.3265 -4.33682 7.99748
rclavicle -1.02374e-014 4.17448e-015
rhumerus -42.519 1.65412 -90.0008
rradius 27.8012
rwrist 18.7719
rhand -10.5082 -14.9924
rfingers 7.12502
rthumb 15.4942 -44.3915
lclavicle -1.02374e-014 4.17448e-015
lhumerus -44.4027 -8.9081 92.4997
lradius 25.4451
lwrist -9.60565
lhand -8.06987 25.5058
lfingers 7.12502
lthumb 17.8416 54.7073
rfemur -46.096 15.0315 7.21527
rtibia 29.0332
rfoot -15.6542 -26.5478
rtoes 1.37362
lfemur -42.4601 -8.04049 -13.711
ltibia 24.7469
lfoot -11.5976 20.2782
ltoes -2.68827
246
root -4.34142 17.387 19.636 31.7112 2.09037 0.640286
lowerback -21.3078 0.272413 -1.93287
upperback -14.8873 0.709289 -0.785188
thorax -4.40105 0.494236 0.363003
lowerneck -3.81302 -3.31099 -1.6847
upperneck 51.7557 -13.7556 16.4295
head 28.0367 -4.37324 8.19633
rclavicle 2.48481e-015 5.76476e-015
rhumerus -42.5919 1.70244 -90.0404
rradius 27.8033
rwrist 18.7703
rhand -10.5341 -14.9527
rfingers 7.12502
rthumb 15.4693 -44.3538
lclavicle 2.48481e-015 5.76476e-015
lhumerus -44.3831 -8.9651 92.5559
lradius 25.486
lwrist -9.55885
lhand -8.06829 25.5256
lfingers 7.12502
lthumb 17.8431 54.7271
rfemur -46.0961 15.0123 7.23655
rtibia 29.0214
rfoot -15.6526 -26.5396
rtoes 1.37217
lfemur -42.4878 -8.03388 -13.7001
ltibia 24.7758
lfoot -11.6141 20.2632
ltoes -2.69328
247
root -4.33966 17.3868 19.6381 31.7329 2.10825 0.626771
lowerback -21.3079 0.261778 -1.93167
upperback -14.9088 0.695334 -0.750952
thorax -4.42581 0.489225 0.396423
lowerneck -4.02855 -3.33966 -1.67982
upperneck 51.2857 -13.9948 16.9373
head 27.7552 -4.409 8.3916
rclavicle -3.2054e-015 -4.37326e-015
rhumerus -42.6627 1.7535 -90.0781
rradius 27.8088
rwrist 18.7664
rhand -10.54 -14.9388
rfingers 7.12502
rthumb 15.4636 -44.3403
lclavicle -3.2054e-015 -4.37326e-015
lhumerus -44.3552 -9.0215 92.6157
lradius 25.5247
lwrist -9.50754
lhand -8.0783 25.5405
lfingers 7.12502
lthumb 17.8335 54.7428
rfemur -46.1021 14.9913 7.25587
rtibia 29.0119
rfoot -15.6511 -26.5326
rtoes 1.36352
lfemur -42.5216 -8.022 -13.6918
ltibia 24.8037
lfoot -11.6253 20.2403
ltoes -2.70589
248
root -4.33798 17.3865 19.64 31.757 2.12659 0.615903
lowerback -21.3085 0.249608 -1.93516
upperback -14.932 0.680138 -0.717634
thorax -4.45238 0.483943 0.431284
lowerneck -4.24761 -3.36887 -1.68453
upperneck 50.7902 -14.2183 17.436
head 27.4866 -4.44528 8.5864
rclavicle -7.45443e-015 1.59028e-015
rhumerus -42.7368 1.80551 -90.1117
rradius 27.8172
rwrist 18.7651
rhand -10.5377 -14.9301
rfingers 7.12502
rthumb 15.4658 -44.3315
lclavicle -7.45443e-015 1.59028e-015
lhumerus -44.3261 -9.07713 92.6811
lradius 25.5631
lwrist -9.45103
lhand -8.09505 25.5534
lfingers 7.12502
lthumb 17.8174 54.7572
rfemur -46.1124 14.9702 7.27125
rtibia 29.0052
rfoot -15.6512 -26.5277
rtoes 1.34973
lfemur -42.5574 -8.00704 -13.6877
ltibia 24.8295
lfoot -11.6322 20.2135
ltoes -2.72729
249
root -4.33635 17.3863 19.642 31.7826 2.14625 0.605636
lowerback -21.3107 0.236541 -1.941
upperback -14.9563 0.664203 -0.684612
thorax -4.47937 0.478485 0.467042
lowerneck -4.46707 -3.39941 -1.70287
upperneck 50.2814 -14.4324 17.9336
head 27.2119 -4.48081 8.77945
rclavicle 1.01877e-015 4.37326e-015
rhumerus -42.8111 1.85347 -90.1375
rradius 27.824
rwrist 18.7697
rhand -10.5362 -14.9263
rfingers 7.12502
rthumb 15.4673 -44.3276
lclavicle 1.01877e-015 4.37326e-015
lhumerus -44.2951 -9.13344 92.7533
lradius 25.6002
lwrist -9.38863
lhand -8.11495 25.5666
lfingers 7.12502
lthumb 17.7982 54.7721
rfemur -46.1245 14.9485 7.28617
rtibia 29.0001
rfoot -15.6511 -26.5247
rtoes 1.33348
lfemur -42.5945 -7.99224 -13.6833
ltibia 24.8538
lfoot -11.6374 20.1857
ltoes -2.752
250
root -4.3348 17.386 19.6439 31.809 2.166 0.59675
lowerback -21.3165 0.222489 -1.95088
upperback -14.9788 0.647759 -0.652024
thorax -4.50271 0.473041 0.504585
lowerneck -4.68598 -3.42607 -1.72372
upperneck 49.7626 -14.6273 18.4238
head 26.9261 -4.50925 8.96573
rclavicle 2.16178e-015 9.14409e-015
rhumerus -42.88 1.8987 -90.1556
rradius 27.8275
rwrist 18.7824
rhand -10.525 -14.9333
rfingers 7.12502
rthumb 15.478 -44.3337
lclavicle 2.16178e-015 9.14409e-015
lhumerus -44.2574 -9.18786 92.83
lradius 25.6353
lwrist -9.32677
lhand -8.13584 25.5789
lfingers 7.12502
lthumb 17.7781 54.7863
rfemur -46.1379 14.9276 7.29882
rtibia 28.9955
rfoot -15.6531 -26.5224
rtoes 1.32261
lfemur -42.6318 -7.97955 -13.6788
ltibia 24.8765
lfoot -11.6425 20.1596
ltoes -2.77517
251
root -4.33316 17.3858 19.6461 31.8306 2.18364 0.586017
lowerback -21.323 0.209818 -1.96055
upperback -14.9998 0.633121 -0.619312
thorax -4.52397 0.46849 0.542486
lowerneck -4.90866 -3.44991 -1.74221
upperneck 49.3149 -14.8286 18.9168
head 26.5633 -4.51734 9.11518
rclavicle -1.93815e-015 2.78299e-015
rhumerus -42.945 1.93844 -90.1641
rradius 27.8238
rwrist 18.8039
rhand -10.5104 -14.9407
rfingers 7.12502
rthumb 15.4921 -44.34
lclavicle -1.93815e-015 2.78299e-015
lhumerus -44.2183 -9.24134 92.9137
lradius 25.6703
lwrist -9.2638
lhand -8.1484 25.5911
lfingers 7.12502
lthumb 17.766 54.7996
rfemur -46.1457 14.912 7.31212
rtibia 28.9896
rfoot -15.6556 -26.522
rtoes 1.31121
lfemur -42.6624 -7.97165 -13.6712
ltibia 24.8986
lfoot -11.6499 20.1417
ltoes -2.79658
